<?xml version="1.0" encoding="utf-8"?>
<svg xmlns="http://www.w3.org/2000/svg" viewBox="0 0 120 40">
  <!-- Blossom -->
  <symbol id="icon-blossom" viewBox="0 0 24 24">
    <path d="M12 2c1.2 2.6 3.8 3 5 5c-2 0-3 1.4-4 2.8C12.8 10.8 11.6 12 10 12c-1.8 0-2.6-1.6-3.6-2.2C4.8 9.2 3.8 8.8 2 8c1.4-2 3.6-3 5-6 1.8 2 4.2 1.6 5 0z" fill="none" stroke="#4A5571" stroke-width="1.2" stroke-linecap="round" stroke-linejoin="round"/>
  </symbol>
  <!-- Mountain -->
  <symbol id="icon-mountain" viewBox="0 0 24 24">
    <path d="M2 20 L10 6 L14 12 L20 4 L22 20 Z" fill="none" stroke="#4A5571" stroke-width="1.2" stroke-linecap="round" stroke-linejoin="round"/>
  </symbol>
  <!-- Temple -->
  <symbol id="icon-temple" viewBox="0 0 24 24">
    <path d="M2 14 L12 6 L22 14" fill="none" stroke="#4A5571" stroke-width="1.2"/>
    <path d="M4 18h16v2H4z" fill="none" stroke="#4A5571" stroke-width="1.2"/>
  </symbol>
</svg>
